#!OML:ASF E:\Mandelcareful walks\Project 1\Capture day 1\Session 1\Subject1.ASF
:FULLY-SPECIFIED
:DEGREES
705
root -1.6539 16.3003 1.29461 -198.039 86.1905 -215.492
lowerback 15.1763 0.713161 -2.42806
upperback 3.308 0.746513 0.511124
thorax -5.02854 0.464818 1.76477
lowerneck -25.7986 4.95047 -1.76686
upperneck 18.0541 9.62139 -8.15182
head 10.4021 3.32768 -1.05037
rclavicle 1.45113e-014 -3.18055e-015
rhumerus -27.5121 6.8342 -84.9359
rradius 45.8376
rwrist -9.03925
rhand -15.0865 -29.4193
rfingers 7.12502
rthumb 11.0813 -59.1067
lclavicle 1.45113e-014 -3.18055e-015
lhumerus -28.3654 -30.4079 94.1117
lradius 49.0302
lwrist 8.91745
lhand -17.391 -10.8131
lfingers 7.12502
lthumb 8.85801 18.981
rfemur -38.6325 -9.03813 12.9356
rtibia 38.7788
rfoot -15.391 -8.18185
rtoes -10.9
lfemur -31.1106 4.03174 -6.97844
ltibia 30.7595
lfoot -12.3761 4.30406
ltoes -19.105
706
root -1.5702 16.36 1.36359 -189.173 85.6331 -206.542
lowerback 14.1358 0.684366 -2.13029
upperback 3.04567 0.770674 0.783485
thorax -4.74131 0.465147 1.88532
lowerneck -25.5884 5.44408 -1.42146
upperneck 18.6252 10.262 -8.2335
head 10.6194 3.6138 -1.02598
rclavicle -4.77083e-015 -1.63003e-014
rhumerus -28.2308 6.37094 -85.063
rradius 45.217
rwrist -8.83423
rhand -13.7806 -31.2749
rfingers 7.12502
rthumb 12.3406 -60.8907
lclavicle -4.77083e-015 -1.63003e-014
lhumerus -28.9436 -30.4599 95.4385
lradius 47.4382
lwrist 8.71826
lhand -16.6422 -10.9315
lfingers 7.12502
lthumb 9.58056 18.8306
rfemur -37.2862 -8.85337 13.4349
rtibia 37.4548
rfoot -15.3681 -8.95013
rtoes -10.4217
lfemur -30.0026 3.55522 -6.33343
ltibia 28.9935
lfoot -11.4933 4.42674
ltoes -20.1592
707
root -1.478 16.4253 1.43163 -182.719 84.8199 -200.135
lowerback 12.7658 0.629124 -1.90718
upperback 2.77955 0.745242 1.03288
thorax -4.27158 0.43994 2.03347
lowerneck -25.0752 6.08037 -0.841572
upperneck 19.025 11.0575 -8.55378
head 10.7607 3.97833 -1.10186
rclavicle -9.14409e-015 -2.62396e-014
rhumerus -28.6881 5.88534 -85.0951
rradius 44.4343
rwrist -8.49361
rhand -13.0895 -31.6234
rfingers 7.12502
rthumb 13.0069 -61.1979
lclavicle -9.14409e-015 -2.62396e-014
lhumerus -29.4816 -30.2393 96.6188
lradius 46.066
lwrist 8.92823
lhand -16.0315 -11.3021
lfingers 7.12502
lthumb 10.1698 18.4321
rfemur -35.9509 -8.80769 13.8846
rtibia 35.9626
rfoot -15.2594 -9.73435
rtoes -9.84671
lfemur -29.0116 3.1525 -5.82638
ltibia 27.115
lfoot -10.6623 4.53116
ltoes -20.7016
708
root -1.3813 16.4958 1.49062 -178.808 84.0479 -196.319
lowerback 11.3361 0.693275 -1.56932
upperback 2.42593 0.872599 1.1069
thorax -3.8588 0.489029 1.90929
lowerneck -24.4889 6.69934 -0.187696
upperneck 19.6119 11.7828 -8.67314
head 10.9496 4.33462 -1.13098
rclavicle -3.57812e-015 1.59028e-014
rhumerus -29.1506 4.98116 -85.173
rradius 43.4297
rwrist -8.1111
rhand -12.727 -31.2789
rfingers 7.12502
rthumb 13.3563 -60.8308
lclavicle -3.57812e-015 1.59028e-014
lhumerus -30.23 -30.0174 97.6211
lradius 45.0708
lwrist 8.90135
lhand -15.5505 -11.453
lfingers 7.12502
lthumb 10.6338 18.2579
rfemur -34.5713 -8.78769 14.2491
rtibia 34.2567
rfoot -15.0097 -10.4707
rtoes -9.42182
lfemur -27.9684 2.78447 -5.46013
ltibia 25.098
lfoot -9.82924 5.06763
ltoes -20.5252
709
root -1.28442 16.5682 1.54042 -176.425 83.3443 -194.084
lowerback 9.90849 0.759187 -1.33177
upperback 2.14234 0.98827 1.21798
thorax -3.3693 0.535156 1.88689
lowerneck -24.5754 7.42427 0.194488
upperneck 20.5507 12.7899 -8.62777
head 11.3851 4.77674 -0.985804
rclavicle 6.36111e-015 -1.90833e-014
rhumerus -29.2759 4.35512 -85.1422
rradius 42.189
rwrist -7.9252
rhand -12.5439 -31.0861
rfingers 7.12502
rthumb 13.5328 -60.6263
lclavicle 6.36111e-015 -1.90833e-014
lhumerus -30.5558 -29.3033 98.3179
lradius 44.3214
lwrist 8.58401
lhand -15.3054 -11.2567
lfingers 7.12502
lthumb 10.8702 18.442
rfemur -33.1516 -8.69346 14.4894
rtibia 32.3555
rfoot -14.6927 -11.2192
rtoes -9.04138
lfemur -26.885 2.41254 -5.25327
ltibia 22.8982
lfoot -8.96119 6.22631
ltoes -20.6751
710
root -1.15509 16.6389 1.57355 -173.99 82.9621 -191.218
lowerback 8.65491 1.04017 -0.950382
upperback 1.88422 1.39112 1.18547
thorax -2.95029 0.724665 1.60507
lowerneck -23.5289 8.23826 1.46996
upperneck 21.2148 13.688 -9.00439
head 11.6104 5.24515 -1.18134
rclavicle 1.39149e-014 -4.77083e-015
rhumerus -30.1725 3.45778 -85.2632
rradius 41.2348
rwrist -8.05277
rhand -12.3916 -31.0065
rfingers 7.12502
rthumb 13.6796 -60.5369
lclavicle 1.39149e-014 -4.77083e-015
lhumerus -31.4457 -28.8865 98.9724
lradius 43.882
lwrist 8.45897
lhand -16.1514 -11.733
lfingers 7.12502
lthumb 10.0541 18.0069
rfemur -30.9267 -8.23223 14.7159
rtibia 30.304
rfoot -14.4826 -11.908
rtoes -8.73453
lfemur -24.9037 1.82924 -4.92173
ltibia 20.7069
lfoot -8.77837 8.27864
ltoes -21.922
711
root -1.01407 16.7021 1.60578 -171.692 81.4492 -188.312
lowerback 7.47084 0.938862 -0.460305
upperback 1.85651 1.29888 1.30699
thorax -2.31034 0.671623 1.48357
lowerneck -22.8816 9.08607 2.64124
upperneck 21.785 14.7052 -9.40679
head 11.8973 5.74717 -1.33391
rclavicle 2.40529e-014 2.22639e-014
rhumerus -30.8945 2.85935 -85.2286
rradius 40.6584
rwrist -8.55975
rhand -11.5463 -31.2281
rfingers 7.12502
rthumb 14.4942 -60.7018
lclavicle 2.40529e-014 2.22639e-014
lhumerus -31.9198 -28.3031 99.2997
lradius 43.7687
lwrist 8.7228
lhand -17.7612 -13.0518
lfingers 7.12502
lthumb 8.50077 16.7571
rfemur -28.247 -8.38999 14.9926
rtibia 28.3788
rfoot -14.5988 -13.0302
rtoes -8.32181
lfemur -23.112 0.708587 -4.58851
ltibia 18.6255
lfoot -9.17571 10.3557
ltoes -24.0348
712
root -0.913922 16.7495 1.62605 -169.315 80.7319 -185.999
lowerback 6.10987 1.17543 0.0202179
upperback 1.52744 1.63235 1.35078
thorax -1.89007 0.830787 1.25209
lowerneck -22.4133 9.7812 3.3565
upperneck 22.4449 15.5845 -9.41374
head 12.1834 6.19055 -1.28952
rclavicle -1.96797e-014 -3.18055e-015
rhumerus -31.6023 2.39198 -85.0881
rradius 40.0697
rwrist -9.2479
rhand -10.3164 -31.5414
rfingers 7.12502
rthumb 15.679 -60.9261
lclavicle -1.96797e-014 -3.18055e-015
lhumerus -32.4879 -27.7449 99.5999
lradius 44.0165
lwrist 9.37744
lhand -17.9213 -12.8784
lfingers 7.12502
lthumb 8.34629 16.9368
rfemur -26.7807 -8.11851 15.3625
rtibia 26.4881
rfoot -14.2699 -13.9441
rtoes -7.84774
lfemur -22.0459 0.0259106 -4.33125
ltibia 16.8434
lfoot -10.6799 13.4432
ltoes -26.0538
713
root -0.885098 16.7986 1.68474 -166.88 78.2198 -185.268
lowerback 3.87953 0.848436 0.298461
upperback 0.539944 1.188 1.5192
thorax -1.64648 0.602809 1.32858
lowerneck -21.6047 10.5129 4.14314
upperneck 22.8813 16.5268 -9.54767
head 12.3522 6.68006 -1.30271
rclavicle -2.62396e-014 -2.78299e-014
rhumerus -32.3268 2.18517 -84.9665
rradius 39.4185
rwrist -10.3537
rhand -9.59815 -31.4565
rfingers 7.12502
rthumb 16.3706 -60.7856
lclavicle -2.62396e-014 -2.78299e-014
lhumerus -33.1343 -27.1768 99.8327
lradius 44.5098
lwrist 10.2713
lhand -15.1824 -8.48182
lfingers 7.12502
lthumb 10.9888 21.2106
rfemur -27.1653 -8.65634 15.9189
rtibia 24.8028
rfoot -14.0027 -15.8949
rtoes -7.02754
lfemur -23.9523 -0.289024 -4.32873
ltibia 15.4823
lfoot -11.5879 15.853
ltoes -27.0748
714
root -0.798107 16.831 1.69297 -164.384 76.9728 -183.087
lowerback 2.12619 0.95086 0.892251
upperback 0.228188 1.32361 1.68395
thorax -0.977532 0.668414 1.18556
lowerneck -20.5769 11.2423 4.90611
upperneck 22.9426 17.5084 -9.89094
head 12.3682 7.18916 -1.39312
rclavicle 1.13506e-013 6.83819e-014
rhumerus -32.9557 1.96129 -84.6686
rradius 39.0586
rwrist -11.3463
rhand -8.93816 -31.5313
rfingers 7.12502
rthumb 17.006 -60.8068
lclavicle 1.13506e-013 6.83819e-014
lhumerus -33.6139 -26.7663 99.9508
lradius 45.2914
lwrist 11.2608
lhand -16.8794 -11.5314
lfingers 7.12502
lthumb 9.35171 18.2412
rfemur -26.118 -8.69985 16.5109
rtibia 23.2393
rfoot -13.9187 -16.8942
rtoes -6.80578
lfemur -23.9535 -0.723755 -4.18171
ltibia 14.839
lfoot -14.0487 19.5041
ltoes -25.3084
715
root -0.702029 16.853 1.6926 -162.927 75.3778 -181.563
lowerback 0.653921 1.01157 1.44425
upperback 0.0684212 1.3871 1.84268
thorax -0.308035 0.702066 1.06426
lowerneck -19.5133 11.9203 5.70929
upperneck 22.8876 18.4081 -10.2404
head 12.3411 7.6734 -1.51112
rclavicle 3.18055e-015 3.18055e-015
rhumerus -33.6379 1.74214 -84.3051
rradius 38.943
rwrist -11.9133
rhand -8.23886 -31.8992
rfingers 7.12502
rthumb 17.679 -61.1154
lclavicle 3.18055e-015 3.18055e-015
lhumerus -34.1128 -26.6715 100.043
lradius 46.471
lwrist 12.4895
lhand -15.9119 -9.81853
lfingers 7.12502
lthumb 10.2852 19.91
rfemur -24.5685 -8.70475 16.9539
rtibia 21.8429
rfoot -14.2217 -18.1445
rtoes -6.23851
lfemur -23.8415 -1.22525 -4.2036
ltibia 14.6936
lfoot -16.9549 22.9761
ltoes -21.24
